<svg version="1.1" xmlns="http://www.w3.org/2000/svg" xmlns:xlink="http://www.w3.org/1999/xlink" width="151.42064" height="151.42064" viewBox="0,0,151.42064,151.42064"><defs><radialGradient cx="320" cy="180" r="75.71032" gradientUnits="userSpaceOnUse" id="color-1"><stop offset="0" stop-color="#000000" stop-opacity="0.5098"/><stop offset="1" stop-color="#000000" stop-opacity="0"/></radialGradient></defs><g transform="translate(-244.28967,-104.28967)"><g data-paper-data="{&quot;isPaintingLayer&quot;:true}" fill-rule="nonzero" stroke="none" stroke-width="0" stroke-linecap="butt" stroke-linejoin="miter" stroke-miterlimit="10" stroke-dasharray="" stroke-dashoffset="0" style="mix-blend-mode: normal"><path d="M244.28968,180c0,-41.81366 33.89666,-75.71032 75.71032,-75.71032c41.81366,0 75.71032,33.89666 75.71032,75.71032c0,41.81366 -33.89666,75.71032 -75.71032,75.71032c-41.81366,0 -75.71032,-33.89666 -75.71032,-75.71032z" fill="url(#color-1)"/><path d="M362.64575,201.78399v-43.9691h24.15145v43.9691z" fill="#ce0000"/><path d="M266.39423,180c0,-29.60565 24.00012,-53.60577 53.60577,-53.60577c29.60565,0 53.60577,24.00012 53.60577,53.60577c0,29.60565 -24.00012,53.60577 -53.60577,53.60577c-29.60565,0 -53.60577,-24.00012 -53.60577,-53.60577z" fill="#ff0000"/></g></g></svg>