<svg version="1.1" xmlns="http://www.w3.org/2000/svg" xmlns:xlink="http://www.w3.org/1999/xlink" width="130.32538" height="110.4034" viewBox="0,0,130.32538,110.4034"><defs><radialGradient cx="320" cy="180" r="55.2017" gradientUnits="userSpaceOnUse" id="color-1"><stop offset="0" stop-color="#ff0000"/><stop offset="1" stop-color="#ff0000" stop-opacity="0"/></radialGradient><linearGradient x1="244.87632" y1="180" x2="314.90725" y2="180" gradientUnits="userSpaceOnUse" id="color-2"><stop offset="0" stop-color="#ff0000" stop-opacity="0"/><stop offset="1" stop-color="#ff0000"/></linearGradient></defs><g transform="translate(-244.87632,-124.7983)"><g data-paper-data="{&quot;isPaintingLayer&quot;:true}" fill-rule="nonzero" stroke="none" stroke-width="0" stroke-linecap="butt" stroke-linejoin="miter" stroke-miterlimit="10" stroke-dasharray="" stroke-dashoffset="0" style="mix-blend-mode: normal"><path d="M264.7983,180c0,-30.48706 24.71464,-55.2017 55.2017,-55.2017c30.48706,0 55.2017,24.71464 55.2017,55.2017c0,30.48706 -24.71464,55.2017 -55.2017,55.2017c-30.48706,0 -55.2017,-24.71464 -55.2017,-55.2017z" fill="url(#color-1)"/><path d="M314.6878,192.65446v-25.30893c0,0 23.79796,0 30.28685,0c3.07288,0 6.79213,3.59986 6.79213,6.24899c0,2.54419 0,8.05395 0,12.49833c0,3.63766 -4.34593,6.56159 -7.76287,6.56159c-6.64017,0 -29.3161,0 -29.3161,0z" fill="#ff0000"/><path d="M244.87632,192.65446v-25.30893h70.03094v25.30893z" fill="url(#color-2)"/></g></g></svg>